<mxfile host="Electron" modified="2024-02-24T17:08:09.327Z" agent="Mozilla/5.0 (Windows NT 10.0; Win64; x64) AppleWebKit/537.36 (KHTML, like Gecko) draw.io/22.0.0 Chrome/114.0.5735.289 Electron/25.8.3 Safari/537.36" etag="LlsjtzLzRPl-OQLi--KD" version="22.0.0" type="device">
  <diagram name="Page-1" id="7tcNL8frNFZ8IFNDzjhc">
    <mxGraphModel dx="1395" dy="697" grid="1" gridSize="10" guides="1" tooltips="1" connect="1" arrows="1" fold="1" page="1" pageScale="1" pageWidth="827" pageHeight="1169" math="0" shadow="0">
      <root>
        <mxCell id="0" />
        <mxCell id="1" parent="0" />
        <mxCell id="dxnSRGxdNhRRQwVJGDiP-4" value="For each &lt;br&gt;square of &lt;br&gt;the matrix &lt;br&gt;(top down)" style="rounded=0;whiteSpace=wrap;html=1;fillColor=#6a00ff;fontColor=#ffffff;strokeColor=#3700CC;fontSize=10;fontStyle=1;align=left;opacity=33;perimeterSpacing=1;strokeWidth=1;" vertex="1" parent="1">
          <mxGeometry x="720" y="60" width="560" height="380" as="geometry" />
        </mxCell>
        <mxCell id="dxnSRGxdNhRRQwVJGDiP-7" value="While the rock &lt;br&gt;is rounded" style="rounded=0;whiteSpace=wrap;html=1;fillColor=#6a00ff;fontColor=#ffffff;strokeColor=#3700CC;fontSize=10;fontStyle=1;align=left;opacity=33;perimeterSpacing=1;strokeWidth=1;" vertex="1" parent="1">
          <mxGeometry x="920" y="100" width="320" height="280" as="geometry" />
        </mxCell>
        <mxCell id="U_aL4a58CHrOEwLBDPAP-1" value="Loop" style="rounded=0;whiteSpace=wrap;html=1;fillColor=#6a00ff;fontColor=#ffffff;strokeColor=#3700CC;fontSize=10;fontStyle=1;align=left;opacity=33;perimeterSpacing=1;strokeWidth=1;" parent="1" vertex="1">
          <mxGeometry x="40" y="520" width="80" height="80" as="geometry" />
        </mxCell>
        <mxCell id="U_aL4a58CHrOEwLBDPAP-2" value="Class" style="rounded=0;whiteSpace=wrap;html=1;fillColor=#e3c800;fontColor=#FFFFFF;strokeColor=#B09500;fontSize=10;fontStyle=1;align=left;opacity=33;perimeterSpacing=1;strokeWidth=1;" parent="1" vertex="1">
          <mxGeometry x="160" y="520" width="80" height="80" as="geometry" />
        </mxCell>
        <mxCell id="U_aL4a58CHrOEwLBDPAP-3" value="Method" style="rounded=0;whiteSpace=wrap;html=1;fillColor=#008a00;fontColor=#ffffff;strokeColor=#005700;fontSize=10;fontStyle=1;align=center;opacity=33;perimeterSpacing=1;strokeWidth=1;verticalAlign=top;" parent="1" vertex="1">
          <mxGeometry x="280" y="520" width="80" height="80" as="geometry" />
        </mxCell>
        <mxCell id="U_aL4a58CHrOEwLBDPAP-4" value="Logic" style="rounded=0;whiteSpace=wrap;html=1;fillColor=#0050ef;fontColor=#ffffff;strokeColor=#001DBC;fontSize=15;fontStyle=1" parent="1" vertex="1">
          <mxGeometry x="40" y="400" width="80" height="80" as="geometry" />
        </mxCell>
        <mxCell id="U_aL4a58CHrOEwLBDPAP-5" value="Variable" style="rounded=0;whiteSpace=wrap;html=1;fillColor=#647687;fontColor=#ffffff;strokeColor=#314354;fontSize=15;fontStyle=1" parent="1" vertex="1">
          <mxGeometry x="160" y="400" width="80" height="80" as="geometry" />
        </mxCell>
        <mxCell id="U_aL4a58CHrOEwLBDPAP-6" value="Note" style="shape=hexagon;perimeter=hexagonPerimeter2;whiteSpace=wrap;html=1;fixedSize=1;fillColor=#e51400;fontColor=#ffffff;strokeColor=#B20000;fontStyle=1;fontSize=15;" parent="1" vertex="1">
          <mxGeometry x="280" y="400" width="80" height="80" as="geometry" />
        </mxCell>
        <mxCell id="U_aL4a58CHrOEwLBDPAP-7" style="edgeStyle=orthogonalEdgeStyle;rounded=0;orthogonalLoop=1;jettySize=auto;html=1;exitX=1;exitY=0.5;exitDx=0;exitDy=0;entryX=0;entryY=0.5;entryDx=0;entryDy=0;" parent="1" source="U_aL4a58CHrOEwLBDPAP-8" target="U_aL4a58CHrOEwLBDPAP-9" edge="1">
          <mxGeometry relative="1" as="geometry" />
        </mxCell>
        <mxCell id="U_aL4a58CHrOEwLBDPAP-8" value="Input: Text file" style="rounded=0;whiteSpace=wrap;html=1;fillColor=#0050ef;fontColor=#ffffff;strokeColor=#001DBC;fontSize=15;fontStyle=1" parent="1" vertex="1">
          <mxGeometry x="360" y="200" width="80" height="80" as="geometry" />
        </mxCell>
        <mxCell id="U_aL4a58CHrOEwLBDPAP-9" value="Read file" style="rounded=0;whiteSpace=wrap;html=1;fillColor=#0050ef;fontColor=#ffffff;strokeColor=#001DBC;fontSize=15;fontStyle=1" parent="1" vertex="1">
          <mxGeometry x="480" y="200" width="80" height="80" as="geometry" />
        </mxCell>
        <mxCell id="U_aL4a58CHrOEwLBDPAP-10" value="MVP - &lt;br style=&quot;font-size: 15px;&quot;&gt;&lt;ul&gt;&lt;li&gt;File input&lt;/li&gt;&lt;li&gt;&lt;br&gt;&lt;/li&gt;&lt;/ul&gt;" style="text;html=1;strokeColor=none;fillColor=none;align=left;verticalAlign=top;whiteSpace=wrap;rounded=0;fontSize=15;" parent="1" vertex="1">
          <mxGeometry x="20" y="210" width="340" height="190" as="geometry" />
        </mxCell>
        <mxCell id="dxnSRGxdNhRRQwVJGDiP-1" value="" style="edgeStyle=orthogonalEdgeStyle;rounded=0;orthogonalLoop=1;jettySize=auto;html=1;" edge="1" parent="1">
          <mxGeometry relative="1" as="geometry">
            <mxPoint x="680" y="239.5" as="sourcePoint" />
            <mxPoint x="719" y="239.5" as="targetPoint" />
          </mxGeometry>
        </mxCell>
        <mxCell id="dxnSRGxdNhRRQwVJGDiP-2" value="Create a terrain matrix to store initial" style="rounded=0;whiteSpace=wrap;html=1;fillColor=#008a00;fontColor=#ffffff;strokeColor=#005700;fontSize=10;fontStyle=1;align=center;opacity=33;perimeterSpacing=1;strokeWidth=1;verticalAlign=middle;" vertex="1" parent="1">
          <mxGeometry x="600" y="200" width="80" height="80" as="geometry" />
        </mxCell>
        <mxCell id="dxnSRGxdNhRRQwVJGDiP-3" value="" style="edgeStyle=orthogonalEdgeStyle;rounded=0;orthogonalLoop=1;jettySize=auto;html=1;" edge="1" parent="1">
          <mxGeometry relative="1" as="geometry">
            <mxPoint x="560" y="240" as="sourcePoint" />
            <mxPoint x="599" y="240" as="targetPoint" />
          </mxGeometry>
        </mxCell>
        <mxCell id="dxnSRGxdNhRRQwVJGDiP-11" value="" style="edgeStyle=orthogonalEdgeStyle;rounded=0;orthogonalLoop=1;jettySize=auto;html=1;" edge="1" parent="1" source="dxnSRGxdNhRRQwVJGDiP-5" target="dxnSRGxdNhRRQwVJGDiP-7">
          <mxGeometry relative="1" as="geometry" />
        </mxCell>
        <mxCell id="dxnSRGxdNhRRQwVJGDiP-5" value="If a rounded rock is encountered:" style="rounded=0;whiteSpace=wrap;html=1;fillColor=#0050ef;fontColor=#ffffff;strokeColor=#001DBC;fontSize=12;fontStyle=1" vertex="1" parent="1">
          <mxGeometry x="800" y="200" width="80" height="80" as="geometry" />
        </mxCell>
        <mxCell id="dxnSRGxdNhRRQwVJGDiP-10" value="" style="edgeStyle=orthogonalEdgeStyle;rounded=0;orthogonalLoop=1;jettySize=auto;html=1;" edge="1" parent="1" source="dxnSRGxdNhRRQwVJGDiP-6" target="dxnSRGxdNhRRQwVJGDiP-8">
          <mxGeometry relative="1" as="geometry" />
        </mxCell>
        <mxCell id="dxnSRGxdNhRRQwVJGDiP-6" value="If the square above is a cube rock or off the matrix" style="rounded=0;whiteSpace=wrap;html=1;fillColor=#0050ef;fontColor=#ffffff;strokeColor=#001DBC;fontSize=13;fontStyle=1" vertex="1" parent="1">
          <mxGeometry x="1000" y="140" width="80" height="80" as="geometry" />
        </mxCell>
        <mxCell id="dxnSRGxdNhRRQwVJGDiP-15" style="edgeStyle=orthogonalEdgeStyle;rounded=0;orthogonalLoop=1;jettySize=auto;html=1;" edge="1" parent="1" source="dxnSRGxdNhRRQwVJGDiP-8" target="dxnSRGxdNhRRQwVJGDiP-14">
          <mxGeometry relative="1" as="geometry" />
        </mxCell>
        <mxCell id="dxnSRGxdNhRRQwVJGDiP-8" value="Record the rock&#39;s load, then turn it into a cube rock" style="rounded=0;whiteSpace=wrap;html=1;fillColor=#0050ef;fontColor=#ffffff;strokeColor=#001DBC;fontSize=13;fontStyle=1" vertex="1" parent="1">
          <mxGeometry x="1120" y="140" width="80" height="80" as="geometry" />
        </mxCell>
        <mxCell id="dxnSRGxdNhRRQwVJGDiP-9" value="Move it up one square" style="rounded=0;whiteSpace=wrap;html=1;fillColor=#0050ef;fontColor=#ffffff;strokeColor=#001DBC;fontSize=15;fontStyle=1" vertex="1" parent="1">
          <mxGeometry x="1120" y="260" width="80" height="80" as="geometry" />
        </mxCell>
        <mxCell id="dxnSRGxdNhRRQwVJGDiP-13" value="" style="edgeStyle=orthogonalEdgeStyle;rounded=0;orthogonalLoop=1;jettySize=auto;html=1;" edge="1" parent="1" source="dxnSRGxdNhRRQwVJGDiP-12" target="dxnSRGxdNhRRQwVJGDiP-9">
          <mxGeometry relative="1" as="geometry" />
        </mxCell>
        <mxCell id="dxnSRGxdNhRRQwVJGDiP-12" value="Else" style="rounded=0;whiteSpace=wrap;html=1;fillColor=#0050ef;fontColor=#ffffff;strokeColor=#001DBC;fontSize=15;fontStyle=1" vertex="1" parent="1">
          <mxGeometry x="1000" y="260" width="80" height="80" as="geometry" />
        </mxCell>
        <mxCell id="dxnSRGxdNhRRQwVJGDiP-14" value="Add to rolling sum" style="rounded=0;whiteSpace=wrap;html=1;fillColor=#647687;fontColor=#ffffff;strokeColor=#314354;fontSize=15;fontStyle=1" vertex="1" parent="1">
          <mxGeometry x="1320" y="140" width="80" height="80" as="geometry" />
        </mxCell>
      </root>
    </mxGraphModel>
  </diagram>
</mxfile>
